<svg version="1.1" id="Layer_1" xmlns="http://www.w3.org/2000/svg" xmlns:xlink="http://www.w3.org/1999/xlink" x="0px" y="0px"
	 width="100%" viewBox="0 0 1356 1356" enable-background="new 0 0 1356 1356" xml:space="preserve">
<path fill="#23CC98" opacity="1.000000" stroke="none" 
	d="
M485.126984,1297.896973 
	C422.701477,1278.148682 364.795410,1250.040527 311.231812,1213.033936 
	C256.009277,1174.881348 207.796051,1129.333008 166.630997,1076.306763 
	C116.554817,1011.801819 79.945641,940.413818 56.861626,862.084351 
	C47.904007,831.689148 41.042465,800.841553 37.023373,769.397156 
	C35.494312,757.434204 34.403740,745.415955 32.988407,733.437622 
	C29.506102,703.966125 29.696594,674.270569 31.342243,644.862000 
	C37.152119,541.036316 65.579025,443.621216 118.018379,353.514465 
	C143.887405,309.063629 174.568985,268.237915 210.126999,231.058228 
	C264.323914,174.389572 326.651093,128.902267 397.250214,94.795090 
	C445.349731,71.557701 495.434265,54.011406 547.976624,44.090878 
	C569.828308,39.965057 591.928528,37.098259 613.969238,34.045002 
	C646.377625,29.555527 679.052856,30.033978 711.546448,31.499357 
	C737.381470,32.664448 763.199829,36.198227 788.801147,40.138119 
	C845.772705,48.905678 900.094788,66.618706 952.367737,90.810570 
	C995.003601,110.542374 1034.959595,134.731216 1072.239258,163.240982 
	C1117.265991,197.675369 1157.174316,237.313934 1191.888428,282.206146 
	C1240.311279,344.826416 1276.147949,413.908569 1299.293823,489.583130 
	C1309.229980,522.069458 1316.802734,555.093018 1320.975220,588.832642 
	C1322.600952,601.979675 1324.250732,615.167664 1324.876587,628.384888 
	C1325.983032,651.748352 1326.979858,675.155273 1326.745239,698.531128 
	C1326.576538,715.328369 1324.992920,732.189819 1322.852661,748.870239 
	C1319.758179,772.988464 1316.885742,797.255249 1311.649414,820.957397 
	C1291.215820,913.449219 1251.899780,997.401733 1194.286987,1072.587280 
	C1133.365356,1152.090820 1058.037476,1214.382935 968.468750,1259.312012 
	C921.237061,1283.004272 871.837402,1300.821167 820.144165,1311.775879 
	C798.014038,1316.465576 775.537964,1319.617920 753.133179,1322.878296 
	C741.437439,1324.580322 729.571228,1325.540283 717.754150,1325.888550 
	C693.667297,1326.598389 669.546204,1327.326904 645.469055,1326.765747 
	C629.571533,1326.395264 613.667358,1324.222900 597.872314,1322.076538 
	C578.699707,1319.471313 559.472595,1316.817261 540.576721,1312.753418 
	C522.022827,1308.763184 503.854767,1302.978882 485.126984,1297.896973 
M856.913757,419.597107 
	C864.462708,430.525879 873.283569,440.800232 879.309692,452.512482 
	C894.297974,481.643463 901.234070,512.861145 898.956116,545.786072 
	C898.275452,555.624207 897.263184,565.451416 896.030457,575.236755 
	C893.616028,594.402954 887.203796,612.399963 877.754089,629.069458 
	C838.947083,697.526184 779.724609,731.128235 701.256226,730.827942 
	C693.823608,730.799500 686.310181,728.761963 679.001709,726.973022 
	C673.445251,725.612915 672.776733,723.739807 675.106384,718.618713 
	C678.344055,711.501770 681.462646,704.276184 685.380737,697.531982 
	C712.224487,651.326172 739.443665,605.337708 766.155090,559.056091 
	C777.373352,539.618835 788.633911,520.097168 798.106567,499.788879 
	C809.902954,474.498901 801.646973,440.494415 779.499756,424.045197 
	C770.133301,417.088501 759.851257,412.999908 747.939758,411.693420 
	C728.765503,409.590363 711.526428,412.731262 698.266602,427.396667 
	C689.372192,437.233826 680.727539,447.621368 673.866455,458.914215 
	C648.800232,500.171387 624.410339,541.841858 599.981689,583.483398 
	C534.612671,694.912659 469.261749,806.352905 404.101898,917.904541 
	C379.335968,960.303040 355.070984,1002.994629 330.672394,1045.606812 
	C325.372589,1054.862915 322.396545,1065.142334 323.285736,1075.639648 
	C323.985168,1083.896851 326.151672,1092.437988 329.587616,1099.977417 
	C339.193237,1121.054810 356.156250,1133.141357 378.992401,1136.897583 
	C401.637146,1140.622559 420.814087,1134.470215 434.900940,1115.893555 
	C443.440399,1104.632446 451.763153,1093.093872 458.988678,1080.968018 
	C499.297668,1013.322693 539.203674,945.437378 579.359070,877.700317 
	C584.361267,869.262268 589.993896,861.195862 595.397034,852.998596 
	C597.368225,850.007996 600.075684,848.493042 603.851074,848.970886 
	C611.424561,849.929504 619.113098,850.231201 626.588135,851.667847 
	C648.154602,855.813049 669.605835,860.328064 691.690063,861.216248 
	C715.085144,862.156982 738.336853,861.725647 761.468750,857.828308 
	C793.856689,852.371460 824.937073,842.803162 853.945923,827.309814 
	C961.343018,769.950378 1020.150635,680.363098 1030.894897,559.194824 
	C1032.719360,538.620117 1031.602661,518.015747 1028.761475,497.612305 
	C1024.566162,467.485046 1016.727600,438.268890 1004.357361,410.394745 
	C978.346436,351.783630 937.106628,305.949921 884.616943,270.105469 
	C845.164734,243.164062 801.473999,226.392899 753.789490,221.265259 
	C738.003845,219.567780 722.026245,219.519028 706.126282,219.085495 
	C699.371033,218.901306 692.581360,220.065857 685.822083,219.922684 
	C666.974609,219.523468 648.527588,222.053085 630.469055,227.197021 
	C574.662354,243.093460 523.992920,268.206696 483.133850,310.519440 
	C464.460388,329.857269 447.313782,350.465210 433.619080,373.702179 
	C424.928253,388.448669 419.820648,404.004272 423.178528,421.581970 
	C428.448090,449.166840 445.012238,466.726166 471.489655,473.813721 
	C496.968201,480.633942 518.216980,471.217957 535.520996,452.176575 
	C539.544556,447.749023 543.292358,443.008484 546.681580,438.078217 
	C558.176880,421.356354 571.890137,406.760559 587.107727,393.349640 
	C617.395508,366.657684 653.488525,353.647919 692.731689,349.313751 
	C714.797913,346.876678 736.995789,349.520660 758.641602,355.346680 
	C786.717102,362.903259 812.380005,374.887756 833.362488,395.538086 
	C841.191711,403.243469 848.759521,411.214508 856.913757,419.597107 
z"/>
<path fill="#FFFFFF" opacity="1.000000" stroke="none" 
	d="
M856.680115,419.330780 
	C848.759521,411.214508 841.191711,403.243469 833.362488,395.538086 
	C812.380005,374.887756 786.717102,362.903259 758.641602,355.346680 
	C736.995789,349.520660 714.797913,346.876678 692.731689,349.313751 
	C653.488525,353.647919 617.395508,366.657684 587.107727,393.349640 
	C571.890137,406.760559 558.176880,421.356354 546.681580,438.078217 
	C543.292358,443.008484 539.544556,447.749023 535.520996,452.176575 
	C518.216980,471.217957 496.968201,480.633942 471.489655,473.813721 
	C445.012238,466.726166 428.448090,449.166840 423.178528,421.581970 
	C419.820648,404.004272 424.928253,388.448669 433.619080,373.702179 
	C447.313782,350.465210 464.460388,329.857269 483.133850,310.519440 
	C523.992920,268.206696 574.662354,243.093460 630.469055,227.197021 
	C648.527588,222.053085 666.974609,219.523468 685.822083,219.922684 
	C692.581360,220.065857 699.371033,218.901306 706.126282,219.085495 
	C722.026245,219.519028 738.003845,219.567780 753.789490,221.265259 
	C801.473999,226.392899 845.164734,243.164062 884.616943,270.105469 
	C937.106628,305.949921 978.346436,351.783630 1004.357361,410.394745 
	C1016.727600,438.268890 1024.566162,467.485046 1028.761475,497.612305 
	C1031.602661,518.015747 1032.719360,538.620117 1030.894897,559.194824 
	C1020.150635,680.363098 961.343018,769.950378 853.945923,827.309814 
	C824.937073,842.803162 793.856689,852.371460 761.468750,857.828308 
	C738.336853,861.725647 715.085144,862.156982 691.690063,861.216248 
	C669.605835,860.328064 648.154602,855.813049 626.588135,851.667847 
	C619.113098,850.231201 611.424561,849.929504 603.851074,848.970886 
	C600.075684,848.493042 597.368225,850.007996 595.397034,852.998596 
	C589.993896,861.195862 584.361267,869.262268 579.359070,877.700317 
	C539.203674,945.437378 499.297668,1013.322693 458.988678,1080.968018 
	C451.763153,1093.093872 443.440399,1104.632446 434.900940,1115.893555 
	C420.814087,1134.470215 401.637146,1140.622559 378.992401,1136.897583 
	C356.156250,1133.141357 339.193237,1121.054810 329.587616,1099.977417 
	C326.151672,1092.437988 323.985168,1083.896851 323.285736,1075.639648 
	C322.396545,1065.142334 325.372589,1054.862915 330.672394,1045.606812 
	C355.070984,1002.994629 379.335968,960.303040 404.101898,917.904541 
	C469.261749,806.352905 534.612671,694.912659 599.981689,583.483398 
	C624.410339,541.841858 648.800232,500.171387 673.866455,458.914215 
	C680.727539,447.621368 689.372192,437.233826 698.266602,427.396667 
	C711.526428,412.731262 728.765503,409.590363 747.939758,411.693420 
	C759.851257,412.999908 770.133301,417.088501 779.499756,424.045197 
	C801.646973,440.494415 809.902954,474.498901 798.106567,499.788879 
	C788.633911,520.097168 777.373352,539.618835 766.155090,559.056091 
	C739.443665,605.337708 712.224487,651.326172 685.380737,697.531982 
	C681.462646,704.276184 678.344055,711.501770 675.106384,718.618713 
	C672.776733,723.739807 673.445251,725.612915 679.001709,726.973022 
	C686.310181,728.761963 693.823608,730.799500 701.256226,730.827942 
	C779.724609,731.128235 838.947083,697.526184 877.754089,629.069458 
	C887.203796,612.399963 893.616028,594.402954 896.030457,575.236755 
	C897.263184,565.451416 898.275452,555.624207 898.956116,545.786072 
	C901.234070,512.861145 894.297974,481.643463 879.309692,452.512482 
	C873.283569,440.800232 864.462708,430.525879 856.680115,419.330780 
z"/>
</svg>